<svg width="236" height="247" viewBox="0 0 236 247" fill="none" xmlns="http://www.w3.org/2000/svg">
<path d="M0 30C0 13.4315 13.4315 0 30 0H205.903C222.472 0 235.904 13.4315 235.904 30V170.589C235.904 212.563 201.877 246.589 159.904 246.589H76.0001C34.0264 246.589 0 212.563 0 170.589V30Z" fill="#506055"/>
<path d="M0 67C0 29.9969 29.9969 0 67 0H200.15C216.718 0 230.15 13.4315 230.15 30V165.657C230.15 207.631 196.123 241.657 154.15 241.657H76C34.0263 241.657 0 207.631 0 165.657V67Z" fill="#CDD4B6"/>
<mask id="mask0_101_29" style="mask-type:alpha" maskUnits="userSpaceOnUse" x="7" y="7" width="224" height="235">
<path d="M7.39764 75.3977C7.39764 37.8423 37.8423 7.39771 75.3976 7.39771H200.15C216.718 7.39771 230.15 20.8292 230.15 37.3977V165.657C230.15 207.631 196.123 241.657 154.15 241.657H83.3977C41.4241 241.657 7.39764 207.631 7.39764 165.657V75.3977Z" fill="#C4C4C4"/>
</mask>
<g mask="url(#mask0_101_29)">
</g>
</svg>
